<svg xmlns="http://www.w3.org/2000/svg" width="38" height="46" viewBox="0 0 38 46">
    <path fill="#FF0" fill-rule="evenodd" d="M38 1.994v34.618c-.067 1.629-.69 4.694-7.125 4.694-7.125 0-7.125-3.777-7.125-5.163 0-1.387.125-5.143 7.25-5.143 1.875 0 5 0 5-1V11.99c0-1.099-.873-1.8-1.96-1.564L14.96 14.574c-1.083.235-1.96 1.315-1.96 2.432v23.83C12.93 42.455 13.551 46 7.124 46 0 46 0 42.228 0 40.837 0 39.446-.125 36 7 36c1.875 0 4 0 4-1V6.992c0-1.1.874-2.173 1.956-2.397L35.15 0h.855C37.107 0 38 .905 38 1.994z"/>
</svg>
