<svg xmlns="http://www.w3.org/2000/svg" width="317" height="51" viewBox="0 0 317 51">
    <g fill="#FF0" fill-rule="evenodd">
        <text font-family="AlmoniDLAAA, Almoni DL AAA" font-size="83" transform="translate(162 -20)">
            <tspan x="0" y="67">רדיוס</tspan>
        </text>
        <path d="M22.6.38c-.217.387-.698.725-1.013 1.039l-1.045 1.039-2.058 2.047c-1.225 1.217-2.498 2.423-3.73 3.649l-.925.92c-.298.296-.633.51-.925.8l-1.85 1.84c-1.236 1.23-2.5 2.426-3.729 3.649l-1.85 1.84-.925.92c-.271.27-.677.556-.865.89h-.06v.059h-.06v.06h-.06c-.04.059-.08.118-.118.177h-.06c-.088.172-.366.275-.508.416l-.507.505-1.044 1.037c-.323.32-.83.682-1.044 1.069-.139.248-.06.71-.06 1.008V24.591H6.43c.006-.107-.125-.25-.179-.327-.1-.137-.096-.135-.12-.296-.025-.173-.133-.136-.209-.253-.037-.058-.09-.016-.089-.104 0 .02.12-.15.12-.148h.178v.06h.597v-.06l.06-.119h.656c.223.112.386.275.507.475.12.199.106.382.328.534h.895v.06h.538v-.06h.12c.097-.082.223-.166.327-.237.08-.055.242-.098.299-.178.042-.06.078-.256.09-.327.012-.085 0-.18 0-.267h.058c-.11-.115-.072-.366-.119-.504-.033-.1-.019-.178-.09-.267-.066-.084-.153-.155-.208-.237-.184-.283-.133-.694-.239-1.009-.059-.176-.029-.337-.06-.534-.013-.088-.074-.126-.059-.238.011-.083.091-.184.12-.267.113-.339.173-.656.357-.979h.358c.12-.06.24-.118.358-.178h.358v-.06h.418v-.058h.18c.19.159.404.195.626.281.099.04.207.094.298.149.141.085.111.094.179.222.173.324.454.747.388 1.157.001-.006-.053.127-.06.15-.014.044.008.1 0 .148-.012.08-.092.215-.119.296-.063.187-.056.405-.12.593-.067.205-.168.387-.238.594-.054.16-.054.429-.179.564v.059h-.06c0 .272.024.492.06.742.047.334.442.346.596.623h.537l.24.118h.477c.197.098.441.23.596.386.115.116.225.384.299.534.17.348.115.85.477 1.098h.18c.104-.182.178-.288.178-.505 0-.194.06-.314.06-.504 0-.363.06-.655.06-1.009l-.06-.118c0-.299.093-.631.328-.831.257-.218.609-.313.866-.534h.597v-.06h.179c.095.095.042.21.059.327.02.142.1.223.119.356.034.228-.02.581-.238.682h-.3c-.135.069-.26.12-.297.267-.032.124.045.206.06.297.046.288-.211.365-.24.623-.021.202 0 .42 0 .623 0 .13.044.186.06.297.02.132-.043.186-.06.296-.029.204.022.42 0 .623-.023.223-.087.4-.118.623-.056.395-.33.966-.716 1.157h-.24c-.394-.196-.702-.487-1.044-.756-.183-.144-.388-.301-.536-.49-.114-.144-.162-.32-.27-.474h-.238c0 .597-.179 1.112-.179 1.72 0 .377.053.823-.06 1.158-.033.1-.103.187-.119.297-.014.093 0 .2 0 .296 0 .225-.06.386-.06.594 0 .237.036.376.15.563.12.2.195.347.268.564.065.193.115.4.179.593.03.088.09.188.06.297-.03.112-.101.166-.12.297-.013.094 0 .2 0 .296l.06.06-.06.06c0 .038.006.08 0 .118-.022.16 0 .342 0 .504 0 .048-.007.1 0 .148.01.058.053.077.06.119.022.133-.045.163-.06.267-.021.162 0 .34 0 .504v1.039c0 .18.014.373-.03.534-.045.174-.089.302-.089.505 0 .35-.023.721-.12 1.037-.094.312-.059.693-.059 1.039 0 .195-.09.329-.06.534.027.188.102.312.18.475.156.332.135.766.357 1.068.143.193.167.319.24.534.023.07.107.168.118.238.005.03-.01.086 0 .118.006.018.058.105.06.119.032.202.018.375.06.563.037.169.06.312.06.505 0 .349.06.646.06 1.009v.563c0 .209.091.313.118.504.024.171 0 .362 0 .535 0 .176.068.318.12.475.114.339-.016.758.179 1.068.351.557.239 1.349.239 2.047H22.9c-.03-.12.042-.192.059-.297.013-.084 0-.182 0-.267V.796c0-.156-.09-.272-.06-.416h-.298zm29.3 7.596c0 .085.013.183 0 .267-.026.179-.122.365-.179.534-.067.198-.146.345-.238.534-.179.363-.36.753-.567 1.098-.1.166-.148.38-.209.563-.062.186-.177.35-.239.534a4.653 4.653 0 0 1-.537 1.069c-.146.218-.179.286-.179.563 0 .197.035.33.06.505.031.223-.116.405-.179.593-.054.162-.06.313-.06.504 0 .206 0 .385.06.564.06.179.12.323.12.534 0 .196-.065.386-.12.564-.052.164-.06.314-.06.504v1.9c0 .046.007.1 0 .147-.008.058-.053.11-.06.149-.03.188-.059.331-.059.533s-.003.365-.06.535c-.114.34-.179.68-.179 1.068 0 .36.044.776-.059 1.098a3.448 3.448 0 0 0-.12.563c-.03.207-.058.352-.119.535-.06.178-.06.357-.06.563 0 .208.093.314.12.505.04.28-.18.365-.239.593-.038.142 0 .379.03.504.088.363.268.699.268 1.098 0 .2-.034.364-.06.535-.017.114-.045.196-.059.296-.006.038.006.08 0 .118-.008.05-.054.086-.06.119-.016.097.015.2 0 .297-.012.077-.109.187-.119.267-.029.205-.06.348-.12.534-.117.366-.235.732-.358 1.097-.06.183-.177.352-.238.535-.058.17-.153.359-.18.533-.029.197-.045.387-.119.565-.037.09-.104.167-.119.267-.006.039.006.08 0 .118-.009.057-.053.076-.06.12-.034.207-.053.398-.119.592-.023.07-.108.168-.12.238-.013.086.014.18 0 .267-.055.364-.24.748-.358 1.097-.057.172-.059.335-.059.534 0 .275.038.335.238.534.315.313.591.684.657 1.098.015.097-.014.2 0 .297.014.094.06.152.06.267 0 .226.056.345.119.534.068.203.205.342.298.534.085.173.153.362.24.534.057.118.136.17.178.297.037.11.086.163.15.266.095.16.19.337.268.505.165.357.269.75.448 1.098.092.18.144.371.208.564.032.096.08.174.12.267.032.077.022.193.06.267.094.191.22.365.297.563.03.077.1.195.12.267.01.037-.012.083 0 .12.006.017.057.104.06.118.033.206.055.403.12.593.048.147.129.344.118.505-.028.421-.387.756-.775.949h-.657v-.059h-.298a4.61 4.61 0 0 1-.418-.178h-.239c-.085.039-.132.086-.119.178v.059c0 .17-.027.366 0 .534.038.239.052.336-.06.564-.088.179-.29.38-.417.534-.158.188-.33.296-.538.416-.19.109-.362.15-.566.23-.216.082-.374.285-.508.452-.157.194-.23.292-.477.415a5.558 5.558 0 0 1-.537.237h-.596v.06h-.36v.06h-.655c-.316-.12-.742-.23-.955-.505-.26-.336-.163-.664.179-.92.285-.214.764-.362.955-.683.086-.143.126-.317.179-.474.048-.144.119-.319.119-.475 0-.394-.542-.55-.656-.89-.054-.16-.126-.317-.18-.475-.051-.154-.066-.32-.12-.475-.108-.326-.308-.624-.416-.949-.103-.307-.168-.625-.3-.92-.139-.315-.29-.628-.416-.949-.067-.165-.123-.335-.18-.504-.047-.143-.074-.3-.12-.445-.05-.168-.064-.344-.118-.505a3.308 3.308 0 0 1-.12-.445c-.026-.165.025-.34 0-.505-.022-.154-.154-.29-.178-.444-.054-.338-.084-.638-.18-.95-.092-.303-.2-.627-.149-.95.027-.17.063-.328.09-.504.022-.15.126-.285.15-.445.048-.34.17-.634.268-.95.058-.186.152-.328.238-.503.025-.051.043-.154.06-.208.028-.091.05-.153.09-.237.072-.155.074-.353.149-.505.081-.163.158-.251.179-.445.009-.087 0-.18 0-.267 0-.122.026-.139.06-.238.06-.18.11-.286.238-.445.257-.319.143-.598.06-.95-.077-.323-.052-.62 0-.948.025-.154.096-.325.119-.474.025-.155-.024-.32 0-.476.014-.092.06-.152.06-.267v-.652c0-.304.048-.65 0-.95-.008-.048-.05-.109-.06-.178-.005-.036 0-.083 0-.118v-.208c0-.143-.02-.303 0-.445.025-.173.07-.34.12-.504.04-.134.08-.293.059-.445-.027-.19-.06-.312-.03-.505.024-.148.069-.297.09-.445.045-.316-.019-.668-.06-.95-.025-.169.072-.357.12-.503.05-.158.127-.291.178-.445.093-.275.079-.664.12-.95.03-.207-.129-.302-.12-.505.008-.153.097-.286.12-.445.03-.212-.047-.336-.12-.504-.058-.136-.072-.306-.12-.445-.112-.336-.423-.588-.476-.95-.045-.301 0-.644 0-.949 0-.18.022-.356-.06-.504-.092-.166-.18-.236-.18-.445 0-.283-.071-.677 0-.95.086-.32.472-.577.419-.949-.033-.228-.15-.295-.3-.475-.122-.15-.207-.337-.356-.474-.075-.068-.189-.13-.269-.194-.077-.06-.101-.11-.15-.162-.145-.158-.293-.31-.476-.415-.151-.087-.368-.16-.478-.297-.086-.107-.083-.33-.06-.475.01-.056.063-.067.06-.149-.003-.051-.021-.08-.03-.119-.017-.07-.068-.141-.09-.207-.056-.168-.146-.28-.238-.445h-.298c-.084-.031-.264-.068-.329-.134-.049-.049-.065-.178-.09-.252-.035-.108-.04-.174-.06-.297-.007-.053-.058-.07-.058-.148 0-.054.05-.086.059-.148a.996.996 0 0 0 0-.267c-.011-.088-.12-.208-.12-.297 0-.071.097-.227.12-.297.03-.089.03-.176.06-.267.065-.195.064-.392.12-.593.061-.224.242-.29.447-.4.104-.057.193-.128.298-.178.077-.038.2-.026.269-.075.078-.055.152-.19.238-.267a.678.678 0 0 0 .18-.237h.238l.179.119h.179l.179-.119h.06v-.06h.477v-.059h.179c.073.129.172.175.299.238h.238c.05-.088.129-.15.179-.238h.239c.05.088.128.15.179.238h.239v.06h.179v-.06h.059c.057.228-.22.393-.18.623.034.182.432.244.598.326.504.25.418.687.418 1.187 0 .244.032.432.059.652.014.106 0 .221 0 .327 0 .048-.006.1 0 .148.009.064.053.104.06.148.035.22.027.42.06.653.043.306.19.37.417.564h.478c.27-.181.337-.47.597-.623.26-.154.422-.343.656-.534.206-.168.506-.23.656-.475.14-.226.204-.439.418-.653.211-.209.388-.4.656-.534.273-.135.441-.208.478-.504.029-.236-.043-.457-.12-.653-.079-.203-.293-.425-.298-.652h-.06c-.061-.065-.071-.152-.059-.238h-.06c.026-.105-.048-.133-.06-.207-.009-.058.01-.12 0-.178-.009-.06-.11-.178-.119-.238-.009-.058.01-.12 0-.178-.02-.13-.137-.288-.179-.416-.045-.136-.075-.28-.119-.414-.089-.264-.141-.556-.27-.801-.076-.149-.192-.218-.327-.327-.155-.124-.193-.282-.298-.415-.239-.3-.59-.472-.836-.771-.113-.14-.136-.242-.209-.387-.06-.116-.253-.256-.268-.385-.04-.33.427-.493.656-.653.265-.185.543-.3.836-.445h.178c.182.12.393.283.538.445.086.097.16.173.178.297.012.075-.019.164 0 .238.07.25.304.233.508.325.182.083.31.277.388.445.042.093.094.255.09.327-.006.083-.064.188-.09.267-.09.269 0 .31.18.534.126.16.285.374.416.534.16.194.377.34.538.534.063.076.109.212.18.297.08.098.148.168.208.267.105.175.218.33.328.504.216.34.356.692.417 1.098.028.182.088.37.12.564.005.033.052.069.06.118.006.048 0 .101 0 .149zm13.307 17.653v-1.751c0-.047.007-.1 0-.148-.008-.057-.052-.076-.06-.119-.007-.047.012-.102 0-.148-.009-.038-.057-.131-.06-.148-.057-.37-.01-.782-.059-1.128-.03-.215.006-.4-.06-.593-.058-.176-.031-.34-.06-.534-.026-.191-.09-.405-.118-.594-.03-.2-.026-.383-.06-.593-.008-.05-.05-.107-.06-.178-.005-.04.006-.08 0-.119a3.975 3.975 0 0 0-.06-.296c-.043-.184-.089-.336-.12-.534-.013-.099-.04-.186-.058-.297-.012-.077-.107-.22-.12-.297a3.127 3.127 0 0 0-.12-.534c-.126-.378-.181-.778-.297-1.157a29.203 29.203 0 0 0-1.85-4.57c-.194-.385-.405-.768-.597-1.156-.027-.054-.093-.138-.12-.178-.048-.075-.03-.065-.06-.119-.06-.112-.125-.188-.177-.297-.095-.19-.265-.342-.36-.534-.197-.403-.52-.746-.774-1.127-.26-.385-.574-.785-.866-1.157-.161-.205-.37-.376-.537-.593-.145-.187-.288-.385-.448-.564a9.951 9.951 0 0 0-1.134-1.068c-.393-.32-.767-.665-1.163-.979-.373-.297-.75-.622-1.164-.86-.387-.225-.748-.485-1.134-.712-.36-.213-.759-.379-1.134-.565-.382-.19-.767-.359-1.163-.514-.383-.15-.795-.252-1.164-.435h-.238c-.21-.104-.436-.155-.656-.237h-.299l-.239-.119h-.358v-.06h-.418L47.604.5h-.597v-.06h-3.282V.5h-.656l-.24.119h-.416v.06h-.358l-.24.118h-.238c-.237.088-.479.148-.716.237h-.18c-.304.151-.659.248-.984.356-.331.11-.634.25-.955.376-.58.228-1.17.554-1.7.87-.562.335-1.154.7-1.671 1.098-.593.458-1.16.917-1.7 1.453l-.866.861c-.247.245-.602.5-.776.801h-.06v.12h-.06c-.104.182-.284.304-.387.474-.103.17-.273.34-.388.504-.23.33-.483.621-.716.95-.434.613-.817 1.271-1.193 1.928-.175.305-.319.592-.478.89-.327.613-.59 1.248-.895 1.869-.142.29-.255.643-.358.95-.107.32-.25.63-.358.95-.206.615-.346 1.244-.537 1.868-.091.298-.139.623-.238.92-.054.161-.07.34-.12.504-.023.077-.047.119-.06.208-.005.039.006.08 0 .119-.007.048-.054.086-.06.118-.05.318-.099.603-.149.92-.025.164-.038.351-.089.504-.049.146-.06.279-.06.445 0 .185-.045.304-.06.475-.006.079.007.159 0 .237-.007.09-.049.143-.059.208-.05.307-.034.618-.06.95-.024.306-.06.614-.06.95V27.646c0 .339.06.606.06.949 0 .152-.024.325 0 .474.026.157.12.256.12.445 0 .163.007.331.03.476.02.132.007.3.029.445.026.176.103.307.12.503.014.166.06.27.06.446 0 .191.093.303.119.475.026.174.035.305.06.474.022.16.068.323.118.475.046.138.052.302.09.445.084.315.17.642.269.95.098.303.137.618.238.92.057.167.125.33.18.503.049.156.128.294.178.445.112.335.202.634.358.95.032.063.038.17.06.238.026.076.094.16.12.237.052.154.116.295.178.445.266.637.605 1.241.895 1.87.075.159.162.318.24.474.08.166.22.306.298.474.074.163.133.323.238.475.11.156.214.285.3.445.18.34.439.617.655.95.198.303.41.641.656.92.152.17.303.319.448.504.116.146.18.298.328.445.32.317.574.63.895.949.302.3.593.643.926.905.176.14.328.317.506.46.135.107.284.188.418.296.317.255.64.492.955.742.302.24.656.404.955.653h.06c.308.258.712.444 1.074.623.333.166.666.361 1.014.494.35.135.69.283 1.044.406.347.12.715.212 1.045.376h.298l.179.119h.239l.477.177h.418v.06h.417v.06h.239v.058h.776v.06h2.924v-.06h.716v-.059h.298v-.06h.418V50.7h.298l.478-.177h.298l.18-.12h.238c.708-.263 1.429-.472 2.119-.785.362-.166.716-.357 1.073-.534.169-.084.344-.16.507-.253.132-.075.412-.183.478-.326h.12v-.06h.058v-.059h.12c.65-.54 1.426-.912 2.03-1.513.321-.32.687-.565 1.014-.89.297-.296.746-.616.955-.98h.06c.242-.4.588-.726.894-1.097.294-.356.56-.756.836-1.127.28-.38.563-.756.805-1.157l.358-.594c.106-.176.24-.374.329-.563.177-.385.409-.746.596-1.128.094-.192.15-.4.239-.594.086-.185.208-.35.298-.533.181-.369.273-.785.447-1.158.096-.203.138-.408.21-.623.06-.182.177-.351.238-.534.065-.194.115-.4.179-.593l.18-.534c.126-.377.182-.778.298-1.157.059-.194.116-.386.15-.593.029-.192.12-.376.148-.564.009-.058-.009-.12 0-.178.007-.05.054-.085.06-.119.018-.112.045-.2.06-.296.027-.185.03-.342.059-.535.054-.36.179-.74.179-1.127 0-.216.09-.393.119-.594.028-.185.002-.39.03-.563.061-.365-.026-.813.09-1.157.11-.328.059-.76.059-1.128V25.63zm60.927-19.433V3.91c0-.187.079-.603-.06-.741h-15.575c-.134.143-.06.551-.06.741v43.317c0 .242-.11.859.06 1.039h6.982c.184-.2.06-.917.06-1.187V27.172c0-.238.068-.308.178-.505h8.057c.26-.1.119-1.242.119-1.513v-4.539h-8.176c-.067-.122-.159-.195-.179-.327-.013-.094 0-.2 0-.296V9.726c0-.241.068-.306.18-.504h8.294c.26-.101.12-1.242.12-1.513V6.196zm29.776-2.641c-.02-.141-.059-.231-.059-.385h-10.383c0 .33-.12.606-.12.95 0 .339-.074.634-.12.948-.02.145.024.3 0 .445-.01.066-.051.118-.058.208-.006.068 0 .14 0 .208 0 .076.01.162 0 .237-.01.07-.052.127-.061.177-.01.068.006.141 0 .209-.007.09-.048.142-.06.207-.022.145.022.3 0 .445-.02.148-.058.247-.058.416 0 .141.021.306 0 .445-.007.034-.054.046-.06.089-.006.039.008.08 0 .118-.014.062-.054.167-.06.208-.021.131 0 .282 0 .415 0 .163-.06.255-.06.416 0 .32-.043.574-.089.86-.042.259-.06.582-.09.83-.017.147.021.3 0 .446-.02.132-.06.231-.06.386-.14.15-.03.463-.06.653-.032.205-.04.42-.06.652-.018.22-.094.44-.118.652-.012.105 0 .221 0 .327 0 .055.008.124 0 .178-.008.058-.053.077-.06.12-.035.211.032.439 0 .652-.031.21-.12.429-.12.652 0 .24-.058.436-.058.653v.356c0 .125-.045.19-.06.297-.032.214-.06.39-.06.623 0 .214-.06.352-.06.563 0 .417-.12.748-.12 1.158 0 .234-.059.393-.059.623 0 .198-.003.364-.06.534-.063.187-.06.38-.06.594 0 .219-.06.367-.06.592 0 .413-.118.72-.118 1.128 0 .414-.06.764-.06 1.187v.297c0 .056.008.121 0 .178-.007.05-.054.085-.06.118-.032.2-.06.356-.06.564 0 .373.053.788 0 1.157-.051.365-.059.76-.059 1.158v.623c0 .2-.034.361-.06.534-.108.727-.06 1.547-.06 2.314 0 .414-.06.763-.06 1.186v1.157c0 .2.03.426 0 .623-.025.178-.093.351-.118.534-.039.278.147.952-.06 1.157h-.06c-.123-.132-.06-.48-.06-.652v-1.306c0-.236-.09-.432-.119-.652-.054-.42 0-.882 0-1.306 0-.246-.06-.41-.06-.653v-.653c0-.246-.087-.405-.119-.623-.024-.169 0-.362 0-.534 0-.408-.06-.764-.06-1.186 0-.058.01-.122 0-.178-.008-.057-.052-.077-.059-.12-.01-.056.008-.118 0-.177-.007-.05-.055-.085-.06-.119-.03-.182.016-.38 0-.563-.031-.366-.067-.792-.12-1.157-.054-.387-.118-.777-.118-1.187 0-.125-.044-.19-.06-.297-.007-.048.005-.1 0-.148-.007-.063-.053-.105-.06-.148-.013-.087.01-.18 0-.267-.012-.11-.045-.17-.06-.267-.032-.224 0-.42-.059-.623-.055-.19-.03-.359-.06-.564-.027-.192-.03-.387-.06-.593-.027-.184-.103-.369-.119-.565-.034-.394-.065-.778-.12-1.157-.054-.386-.119-.786-.119-1.186 0-.21-.089-.398-.119-.594-.03-.198-.036-.38-.06-.564-.012-.105 0-.22 0-.326 0-.125-.043-.187-.06-.296-.027-.19-.059-.343-.059-.535 0-.209-.06-.369-.06-.593 0-.217-.025-.384-.059-.593-.008-.05-.05-.108-.06-.178-.004-.036 0-.081 0-.119 0-.13-.043-.188-.06-.297-.027-.184-.003-.392-.03-.563-.033-.214-.089-.389-.089-.623 0-.205-.06-.333-.06-.534 0-.407-.12-.738-.12-1.157.008-.097-.045-.144-.059-.238-.01-.076 0-.16 0-.238 0-.175-.036-.302-.059-.474-.012-.081-.052-.136-.06-.237-.007-.079.01-.16 0-.238-.01-.081-.05-.135-.06-.237-.006-.078 0-.16 0-.238 0-.303-.119-.535-.119-.83 0-.177-.037-.287-.06-.445-.02-.136.02-.28 0-.416-.02-.143-.035-.262-.06-.415-.01-.06-.052-.124-.06-.208-.004-.068.01-.14 0-.207-.037-.253-.081-.578-.119-.83-.082-.557-.117-1.145-.208-1.692-.022-.133-.01-.299-.03-.445-.021-.152-.06-.25-.06-.415a1.22 1.22 0 0 0-.059-.416c-.038-.114-.025-.288-.12-.385h-10.323c.025.144-.06.306-.06.474v44.207c0 .164.05.27.06.416h6.146c.15-.151.06-.654.06-.861V18.865c0-.599.032-1.216-.06-1.78-.013-.079-.06-.132-.06-.238V15.304c0-.324-.059-.574-.059-.89v-.89c0-.288.04-.606 0-.89-.021-.15-.065-.295-.09-.446-.01-.06-.041-.13-.03-.207.013-.083.083-.1.06-.207h.06c.129.138.12.464.12.652 0 .242.06.406.06.652 0 .067-.01.143 0 .209.006.049.053.085.058.118.01.058-.009.12 0 .178.01.07.052.087.06.149.014.104 0 .22 0 .326 0 .13.046.222.06.327.03.22.034.454.06.652.029.228.06.41.06.653 0 .246.06.41.06.652 0 .067-.011.142 0 .208.006.05.053.085.058.119.01.058-.008.12 0 .178.01.069.052.086.06.148.053.398.003.76.06 1.157.027.195.091.404.12.594.013.094 0 .2 0 .296 0 .047-.008.102 0 .149.008.055.054.113.06.148.03.194-.03.4 0 .593.026.186.097.372.118.564.043.396-.003.762.06 1.158.007.044.05.11.06.178.007.048-.007.099 0 .148.011.09.06.154.06.267 0 .223.03.396.06.593.013.095 0 .2 0 .297 0 .048-.006.1 0 .148.006.063.052.106.058.149.03.187.06.343.06.534 0 .233.034.412.06.623.026.206-.002.378.06.563.062.187.06.38.06.594 0 .211.06.349.06.563 0 .067-.01.143 0 .208.006.05.053.085.06.119.006.046-.015.103 0 .148.007.027.057.144.058.148.027.174-.024.36 0 .534.056.392.125.802.18 1.188.029.208.032.4.06.592.013.097-.015.2 0 .298.014.104.046.164.058.267.028.218.06.39.06.623 0 .2.06.333.06.534 0 .216.028.383.06.592.016.11.06.172.06.298 0 .093-.014.203 0 .296.015.108.06.172.06.297 0 .095-.015.202 0 .297.026.184.098.37.118.563.012.106 0 .22 0 .327 0 .125.043.187.06.296.011.076 0 .16 0 .238 0 .056-.009.121 0 .178.007.05.054.084.06.118.034.21.06.374.06.594 0 .214.06.349.06.563 0 .067-.01.142 0 .208.007.058.052.077.06.119.011.077-.013.16 0 .237.006.05.053.085.058.119.018.111 0 .243 0 .356 0 .148.041.229.06.356.036.242-.005.46.06.683.063.223.023.439.06.681.019.128.06.209.06.356 0 .049-.007.101 0 .149.007.061.052.107.058.149.034.206.06.387.06.593 0 .424.059.84.12 1.245.018.124.06.21.06.357 0 .096-.016.203 0 .297.007.042.05.06.06.118.007.057 0 .122 0 .178 0 .088-.013.181 0 .267.009.07.047.123.058.208.006.038-.005.08 0 .119.017.107.06.171.06.296 0 .225.032.393.06.594.033.232.027.433.06.653.027.188.06.375.06.593 0 .144.04.222.06.356.013.097-.015.2 0 .297.027.187.092.4.118.593.032.224.032.45.06.652.03.212.032.394.06.595.03.216.06.41.06.652 0 .212.103.365.12.564h6.444c.17-.184.086-.45.12-.683.03-.223.085-.492.119-.712.035-.236.028-.436.059-.682.016-.128.042-.203.059-.327.012-.077-.01-.16 0-.237.008-.05.055-.084.06-.119.069-.415.061-.83.12-1.246.03-.215.088-.44.12-.653.013-.097-.016-.2 0-.296.016-.11.059-.168.059-.297 0-.243.027-.431.06-.653.015-.11.059-.168.059-.296 0-.088-.011-.18 0-.267.016-.122.06-.193.06-.327 0-.095-.015-.203 0-.296 0-.004.052-.155.06-.178.01-.035-.006-.083 0-.12.006-.044.05-.11.06-.177.004-.036 0-.082 0-.119 0-.244.059-.41.059-.652 0-.211.09-.399.119-.594.033-.223.03-.447.06-.652.03-.213.029-.384.06-.594.018-.128.059-.203.059-.356 0-.095-.015-.204 0-.296.005-.035.052-.07.06-.12.008-.055 0-.12 0-.178 0-.035-.006-.082 0-.118.01-.067.053-.133.059-.178a3.79 3.79 0 0 0 .06-.653c0-.198.06-.35.06-.564-.023-.095.03-.237.06-.326a1.45 1.45 0 0 0 .059-.326c.012-.107-.015-.22 0-.327.017-.115.06-.188.06-.326 0-.058-.007-.12 0-.178.007-.063.053-.105.06-.148.009-.058-.01-.12 0-.178.01-.07.05-.087.06-.149.012-.103 0-.222 0-.326 0-.125.043-.188.059-.297.033-.222.031-.449.059-.652.031-.217.027-.424.06-.654.02-.136.06-.207.06-.355 0-.058-.009-.121 0-.178.008-.058.053-.077.06-.119.036-.227.059-.42.059-.652 0-.404.122-.806.18-1.188.058-.39-.004-.76.059-1.157.033-.205.119-.404.119-.623 0-.17-.027-.365 0-.534.008-.05.05-.108.06-.178.006-.047 0-.1 0-.148 0-.086-.012-.181 0-.267.029-.2.09-.394.119-.593.028-.194-.027-.4 0-.594.026-.183.06-.327.06-.534 0-.222.057-.413.09-.623.027-.174.03-.372.03-.563 0-.218.059-.371.059-.594 0-.21.038-.381.06-.563.044-.374.067-.789.119-1.157.028-.194-.031-.4 0-.594 0-.006.052-.122.06-.149.013-.044-.008-.102 0-.147.005-.035.052-.07.06-.12.006-.046 0-.1 0-.147 0-.228.03-.429.059-.624.025-.174-.025-.36 0-.533.027-.196.091-.405.119-.595.029-.193-.029-.399 0-.593.029-.189.06-.375.06-.593 0-.19.03-.345.06-.534.009-.056.05-.13.059-.208.006-.047 0-.1 0-.148 0-.088-.01-.18 0-.267.02-.182.03-.368.06-.564.012-.08.054-.098.06-.178.005-.074-.03-.102-.03-.148 0-.052.019-.197.03-.267.006-.042.052-.088.06-.149.006-.047 0-.1 0-.148v-.267c0-.22.059-.39.059-.623 0-.206.031-.345.06-.534.027-.187.059-.377.059-.593 0-.13.037-.188.06-.297.021-.103-.029-.18.06-.267h.06c0 .277.04.587 0 .86-.023.149-.06.272-.06.445v1.335c0 .6.032 1.216-.06 1.78-.013.078-.06.131-.06.238v4.213c0 .307-.06.567-.06.89v25.812c0 .214-.09.698.06.86h6.147c0-.164.047-.26.06-.415.011-.146 0-.298 0-.445V4c0-.143.02-.304 0-.445zM88.002 19.963c0-.123.042-.333 0-.445-.046-.128-.305-.313-.417-.387h-.239c-.094.17-.12.214-.12.416v.416c0 .2-.084.676.06.83h.538a1.69 1.69 0 0 0 .178-.83zm18.559 2.224c-.015-.097-.086-.153-.06-.267-.053-.341-.089-.716-.12-1.068-.029-.344-.13-.694-.178-1.038-.09-.642-.255-1.256-.358-1.9-.011-.067-.078-.188-.09-.266-.01-.064-.05-.174-.06-.237-.025-.162-.099-.296-.148-.445-.055-.163-.068-.345-.12-.505-.048-.148-.07-.296-.12-.445-.054-.165-.125-.337-.178-.504-.046-.14-.059-.312-.12-.445-.145-.317-.273-.632-.417-.95-.066-.143-.05-.334-.12-.474-.08-.163-.18-.303-.238-.475-.03-.085-.05-.187-.09-.267-.017-.036-.072-.054-.09-.089-.015-.032.017-.087 0-.12-.043-.087-.132-.146-.178-.236-.04-.077.017-.131-.06-.208l-.06-.118c-.034-.22-.19-.464-.298-.654-.119-.206-.257-.409-.358-.622-.216-.455-.505-.875-.776-1.306-.28-.445-.54-.88-.895-1.305-.065-.078-.15-.23-.209-.327-.075-.124-.176-.205-.268-.326-.079-.102-.132-.228-.209-.326-.084-.107-.201-.177-.269-.297h-.06c.012-.207-.35-.41-.477-.564-.157-.19-.28-.397-.477-.593-.369-.366-.728-.755-1.134-1.069-.35-.269-.675-.578-1.015-.86a13.38 13.38 0 0 0-1.014-.74 17.814 17.814 0 0 0-2.029-1.208 21.176 21.176 0 0 0-2.058-.885C91.54.794 90.82.69 90.15.44h-.418L89.495.32h-.418v-.06h-.657l-.238-.118h-2.685l-.24.119h-.715v.06h-.478c-.08.04-.16.078-.238.118h-.358c-.741.276-1.528.397-2.268.682-1.4.54-2.72 1.245-3.939 2.077-.312.213-.787.418-.597.83.168.363.503.678.806.98.305.303.53.65.806.98.13.154.171.38.298.533.127.153.26.27.358.445.046.103.132.18.12.297h.06c.027.225.202.477.298.682.11.24.24.477.358.712.056.115.139.176.179.297.032.095.103.26.119.356.042.258.1.473.179.712.132.395.227.794.358 1.186.07.213.108.441.179.654.066.197.15.377.179.593.032.228.12.424.12.653 0 .191.004.389.03.564.058.41-.094.925.268 1.216.406.327.834.637 1.253.95.216.16.415.352.626.518.206.162.332.313.537.475.125.098.171.216.269.312.089.087.213.133.299.237.156.19.371.385.537.593.158.2.395.44.537.653.074.112.15.195.238.296.042.05.14.127.179.208h.06c.174-.187-.003-.511-.06-.682-.073-.218-.06-.463-.06-.712 0-.137-.02-.236-.06-.356a11.74 11.74 0 0 0-.06-.178c-.006-.022-.045-.152-.058-.178-.115-.232-.273-.436-.418-.653-.24-.359-.506-.805-.358-1.246.067-.2.18-.48.298-.653.131-.192.417-.281.597-.415.408-.305.809-.636 1.253-.89.134-.077.254-.09.298-.237.024-.078 0-.216 0-.298 0-.216.003-.407-.06-.592-.072-.217-.165-.437-.238-.653-.065-.195-.15-.386-.18-.594-.014-.11-.002-.244 0-.356.07-.029.08-.06.03-.089l-.03-.03c0-.057.009-.12 0-.178-.015-.116-.041-.18-.058-.296a.533.533 0 0 1 0-.119c.009-.066.052-.132.059-.178.022-.133.041-.227.06-.356.017-.121.025-.192.06-.297.07-.206.143-.398.238-.593.218-.445.67-.808 1.134-1.038h.298c.235-.117.47-.205.716-.297h.12a3.32 3.32 0 0 1 1.432 1.038c.146.177.27.471.358.683.086.208.205.458.238.682.035.232-.033.48 0 .712.036.254.065.422 0 .682-.054.223-.078.48-.179.683-.065.134-.156.198-.179.356-.014.104 0 .22 0 .327h.418l.24.118h.834c.094.079.202.135.298.208.094.07.18.18.24.237.165.163.27.34.357.535.035.076.034.186.06.266.024.075.107.191.12.267.032.201.06.39.149.564.164.32.26.672.447.98.109.178.218.393.418.533.169.119.28.148.388.326.222.369.69.606.924.98.06.094.11.19.18.296.049.075.113.155.178.238.112.139.25.327.358.474.24.324.556.619.776.95.125.186.263.339.358.533.08.162.141.32.24.475.106.17.222.33.328.505.079.131.208.285.208.445 0 .14-.053.412-.12.534-.081.151-.285.165-.357.326h-.179a.85.85 0 0 0-.299-.356c-.136-.1-.314-.157-.358-.326-.07-.266.044-.553-.059-.801-.108-.259-.178-.55-.299-.802-.137-.287-.394-.46-.686-.637-.559-.338-1.118-.667-1.64-1.053-.122-.09-.241-.17-.359-.267-.126-.105-.305-.187-.418-.297-.194-.191-.456-.535-.477-.801h-.239c0 .349.08.482.298.741.185.22.18.42.18.713 0 .452.458.212.596.534.057.13-.024.228.06.355.09.134.263.133.358.238.066.072.06.089.06.178 0 .05-.061.163-.06.179.015.11.232.31.329.385.112.087.295.127.387.237.1.12.047.188 0 .326-.036.108-.076.235-.06.356.021.142.078.23.12.356.083.246.267.479.298.742h.06c-.01.134.126.218.18.327.052.108.08.24.118.356.076.226.12.453.12.712 0 .477.194.863.12 1.365-.017.112-.103.25-.12.355-.024.146-.017.227-.06.357a4.32 4.32 0 0 0-.179.712c-.016.1-.086.257-.119.356-.037.111-.045.22-.09.326-.098.226-.25.45-.328.682-.08.239-.194.426-.299.654a2.906 2.906 0 0 0-.119.296c-.027.081-.106.216-.119.296-.07.431-.222.84-.358 1.246-.072.215-.108.44-.18.654-.065.196-.148.385-.178.593-.061.43.055.854.12 1.246.013.085.058.073.058.178 0-.063-.083.209-.059.178-.068.087-.252.112-.298.237-.069.186.11.453.18.594.093.191.209.407.237.623.03.222-.032.429.06.623.092.193.323.384.298.623-.021.218-.327.362-.358.593-.05.384.102.844 0 1.216-.03.114-.16.238-.179.357-.015.093 0 .201 0 .297 0 .217.055.4.12.592.032.098.06.118.06.238 0 .037-.005.083 0 .12.012.087.02.217.06.296.055.112.08.18.118.296.026.076.107.219.12.297.035.216-.035.512-.179.653-.188.183-.418.236-.418.534 0 .236.06.408.06.652 0 .19-.03.406 0 .594.015.095.104.261.12.356.017.111.044.198.058.296.032.214-.003.403.06.594.07.206.12.42.12.652 0 .235-.053.394-.12.594-.09.272-.203.407-.477.563-.094.055-.252.097-.299.208-.036.087-.03.21-.059.297-.177.53-.666.625-1.074.979h-.597v.06h-.298l-.239.118h-.417c-.32-.267-.8-.307-.836-.77-.015-.198.06-.332.06-.535v-.475c.109-.117.056-.317.12-.445.075-.154.179-.299.268-.445.084-.14.079-.305.149-.445.066-.134.218-.271.179-.445 0-.124-.02-.264 0-.386.054-.025.074-.065.06-.119v-.118c-.009.052.071-.203.06-.178.14-.282.5-.52.118-.772-.263-.174-.596-.374-.596-.712 0-.212.278-.567.06-.801h-.18c-.33.217-.491.569-.776.801-.264.216-.58.402-.775.683-.162.233-.21.537-.298.8-.064.19-.31.6-.12.802h.776c.266.132.446.194.597.445.165.275.098.392-.06.653-.233.381-.85.482-1.253.682h-1.373c-.288-.143-.539-.323-.716-.564-.094-.128-.186-.282-.328-.37-.128-.081-.274-.084-.388-.193h-.596c-.286-.142-.544-.304-.836-.426-.247-.102-.63-.38-.775-.613-.012-.018-.05-.15-.06-.178v-.119c-.08-.039-.08-.079 0-.118.003-.166.053-.223.119-.356.065-.134.116-.28.179-.416.014-.03.119-.141.12-.178 0-.028-.1-.166-.12-.207h-.358c-.26-.13-.501-.251-.716-.445a1.995 1.995 0 0 0-.716-.445h-.477c-.233-.201-.537-.313-.776-.505-.13-.105-.228-.25-.358-.356-.111-.09-.28-.137-.298-.296-.014-.12.114-.32.179-.416.079-.118.195-.232.298-.356.177-.213.326-.553.597-.712.123-.072.287-.064.418-.118.147-.063.245-.186.357-.297.224-.223.473-.396.716-.594.23-.187.507-.311.776-.445.275-.136.449-.3.656-.504.207-.203.38-.433.657-.594.22-.127.436-.217.626-.385.226-.2.4-.427.627-.594.214-.156.435-.298.656-.445.195-.129.537-.276.537-.534 0-.214-.281-.486-.417-.652-.357-.437-.703-.78-1.015-1.246-.309-.462-.588-.908-.895-1.366-.146-.217-.26-.433-.417-.652-.143-.198-.222-.45-.36-.652a2.471 2.471 0 0 1-.297-.683c-.034-.116-.04-.2-.06-.327-.012-.077-.106-.219-.12-.296-.017-.112 0-.242 0-.356 0-.17-.05-.22-.118-.356-.088-.176-.03-.391-.06-.594-.024-.163-.168-.27-.238-.415a2.512 2.512 0 0 1-.12-.297c-.068-.203-.06-.417-.06-.652 0-.198.053-.464 0-.653-.058-.212-.275-.476-.477-.594-.107-.061-.263-.099-.358-.177-.123-.103-.135-.224-.18-.356-.043-.132-.05-.193-.178-.297-.1-.082-.202-.143-.298-.237-.237-.236-.428-.294-.716-.436-.264-.13-.346-.354-.567-.529-.204-.16-.49-.193-.687-.371-.18-.163-.345-.413-.477-.623-.267-.422-.585-.801-.657-1.305-.06-.433.074-.907-.06-1.306a2.812 2.812 0 0 0-.357-.712c-.119-.176-.282-.405-.299-.623h-.06v-.06h-.119v-.058h-.239v.059h-.358v-.06h-.537v.06h-.179v.06h-.597v-.06h-.119v-.06h-.298v.06h-.239a.428.428 0 0 0-.179-.178h-.239v-.06h-.238v.06h-.239c-.116-.128-.021-.202 0-.327.016-.087.067-.034 0-.148-.027-.047-.066-.058-.119-.089-.085-.05-.227-.043-.298-.119-.091-.095-.053-.223-.21-.304-.129-.066-.23-.034-.328-.17-.043-.062-.093-.222-.119-.297-.068-.202-.2-.413-.239-.623-.006-.04.014-.07.06-.089l-.06-.06c-.001.008.055-.163.06-.177.029-.085.106-.213.12-.297a1.353 1.353 0 0 0 0-.326c-.013-.093-.109-.203-.06-.327.023-.058.116-.094.149-.148l.09-.089-.06-.06c.07-.029.08-.06.03-.088l-.06-.06c-.001-.035-.039-.093-.03-.148.024-.144.18-.134.269-.222.07-.069.084-.189.15-.282h.356l.12-.178h.24c.067.12.182.22.297.296h.298c.186-.092.35-.204.538-.296h.178l.36-.179h.535c.115-.198.39-.286.478-.474h.18c-.014.252.275.34.476.415h.12v.06h.477v-.06h.18v.06h.238v-.06h.06v-.415c0-.29-.017-.536-.06-.802-.008-.055-.05-.128-.06-.207-.008-.068.01-.14 0-.208-.025-.171-.163-.263-.238-.415-.135-.271-.36-.521-.478-.801-.05-.122-.077-.26-.119-.386-.047-.139-.132-.275-.179-.415-.094-.28-.17-.568-.299-.831-.126-.258-.23-.514-.358-.771-.136-.28-.254-.561-.418-.83-.084-.141-.146-.28-.238-.416-.093-.14-.213-.234-.298-.387h-.359c-.165.3-.533.561-.775.802-.275.273-.587.533-.835.83-.099.118-.247.28-.359.416-.104.129-.173.265-.268.386-.11.14-.236.248-.328.385-.09.135-.204.296-.299.416-.422.531-.77 1.06-1.134 1.602-.087.13-.152.287-.238.415-.099.147-.213.261-.299.415-.07.128-.114.285-.179.416-.064.133-.166.228-.178.386h-.06c-.091.148-.228.304-.239.474h-.059a.197.197 0 0 1-.06.179.194.194 0 0 0-.06.178h-.06c.019.104-.03.18-.059.267-.03.087-.08.214-.119.297-.094.191-.217.365-.299.562-.076.186-.176.376-.239.565-.058.174-.101.367-.179.534-.17.367-.288.743-.417 1.127-.063.188-.116.375-.179.564-.054.158-.183.361-.179.534a.194.194 0 0 0-.06.178v.06c-.044.047-.11.269-.12.326-.019.125-.025.21-.059.326-.03.108-.102.213-.12.326-.02.135-.023.208-.059.327a5 5 0 0 0-.149.652c-.036.224-.115.437-.15.653-.01.068.01.14 0 .208-.006.05-.053.084-.059.118-.01.058.009.12 0 .178-.01.066-.053.133-.06.178-.034.217-.022.425-.06.653-.007.05-.05.108-.059.178-.006.036 0 .083 0 .12a.969.969 0 0 1-.06.355c-.071.212-.026.418-.06.653-.049.347-.004.757-.059 1.127-.034.226-.12.397-.12.653v2.878c0 .399.002.789.06 1.157.007.045.05.111.06.178.008.056 0 .12 0 .178v.237c0 .221.032.396.06.593.03.214-.005.402.06.594.061.184.033.358.059.563.016.13.042.202.06.327.006.049-.008.1 0 .149.009.054.053.112.06.147.029.186.03.34.059.535.03.201.117.42.15.622.029.191.06.37.089.565.015.105.073.219.09.326.011.077.078.2.089.267.034.213.058.37.119.564.12.38.172.779.298 1.157.133.395.285.79.418 1.186.07.208.14.397.239.594.042.083.018.214.06.297.045.092.035.045.06.118.006.022.046.152.059.179.1.2.205.39.298.593.04.088.089.205.12.297.023.07.026.171.06.237.108.218.242.409.357.623.094.174.152.386.24.564.193.395.408.774.655 1.157.15.325.362.576.537.89.138.243.278.434.448.652.167.215.276.44.447.653.085.104.17.216.24.327.082.131.195.223.298.355.154.198.35.398.477.624.25.442.766.687 1.014 1.127h.06c.11.192.322.349.477.504.157.156.306.336.477.475.173.14.335.298.508.445.148.125.346.179.447.356h.06c.275.181.522.416.776.623.228.186.522.354.776.505.49.291.973.572 1.492.83.5.25.998.517 1.521.713.494.183 1.053.3 1.522.533h.179v.06h.299l.179.119h.298v.059h.358l.238.119h.418v.059h.597v.06h.299v.058h3.102v-.059h.358v-.06h.537v-.058h.418l.239-.12h.298v-.058h.298l.18-.12h.238v-.059h.298c.487-.242 1.044-.348 1.552-.544.513-.197.989-.48 1.491-.701.528-.232 1.043-.557 1.523-.876.252-.168.502-.338.745-.519.23-.172.571-.303.716-.564h.12l.06-.119h.06v-.06h.058c.126-.225.468-.374.657-.563l.687-.682c.424-.423 1.014-.87 1.312-1.365.142-.235.368-.484.567-.682.134-.133.155-.22.239-.356.081-.131.218-.236.299-.356.148-.223.324-.425.477-.653l.238-.356c.068-.1.183-.242.239-.356.102-.206.227-.398.359-.593.055-.084.131-.201.178-.297.05-.102.126-.19.179-.297.205-.41.395-.834.597-1.246.395-.806.788-1.581 1.074-2.433.07-.21.177-.41.239-.623.056-.197.122-.395.179-.593.06-.212.17-.417.238-.623.033-.1.027-.197.06-.297.026-.08.106-.217.12-.297.07-.437.236-.81.298-1.246.03-.206.085-.381.119-.593 0-.004.052-.155.06-.178.01-.032-.005-.088 0-.119.007-.045.05-.111.059-.178.006-.039-.005-.08 0-.118.018-.113.102-.249.12-.357.015-.096-.015-.2 0-.297.026-.18.06-.42.119-.592.125-.375.061-.78.12-1.188.032-.227.119-.405.119-.652 0-.19-.028-.405 0-.594.03-.196.06-.396.06-.623v-4.242c0-.225-.06-.411-.06-.653 0-.096.013-.203 0-.297zm-17.783 2.819h.06c.12-.211.179-.28.179-.534v-.534c0-.245.113-.889-.06-1.068h-.537c-.227.151-.213.329-.089.534.102.17.155.357.238.534.048.1.074.15.09.267.018.132-.044.196-.06.297-.036.225-.01.375.179.504zM12.993 49.068v-.712c0-.115.018-.244 0-.356-.02-.137-.099-.28-.119-.416-.066-.447-.167-.862-.239-1.305-.053-.025-.073-.065-.059-.12v-.118c-.002-.013-.054-.1-.06-.118-.04-.122-.038-.225-.06-.357-.012-.082-.09-.213-.119-.296-.033-.1-.044-.19-.06-.297-.065-.468-.179-.866-.179-1.365 0-.436-.131-.856-.059-1.305.013-.083.076-.122.06-.237-.01-.058-.053-.077-.06-.119-.021-.132-.019-.234-.06-.357-.07-.205-.203-.408-.239-.622.008-.041-.012-.07-.06-.09-.013-.053.007-.093.06-.118.003-.059 0-.118 0-.178v-.296c0-.209.032-.448 0-.653-.019-.128-.06-.203-.06-.357 0-.105.015-.221 0-.325-.027-.21-.119-.39-.119-.623 0-.283-.141-.45-.179-.713-.036-.264-.108-.388-.238-.623h-.239c-.084.152-.187.232-.239.386-.036.107-.102.243-.119.356-.042.28-.034.516-.119.772-.082.245-.2.511-.239.77-.009.06.008.12 0 .178-.01.068-.053.133-.06.18-.022.138-.043.257-.06.385-.055.428 0 .902 0 1.335 0 .424-.106 1.027.12 1.364.169.252.28.413.18.712-.074.217-.107.436-.18.653l-.12.356c-.044.132-.053.234-.119.356-.117.22-.394.168-.507.386-.062.12-.089.264-.149.385-.057.114-.182.184-.239.297-.09.184-.06.433-.06.653v3.442c0 .176-.065.488.06.623h2.09v.06h.177v-.06h2.03c0-.277-.156-.495-.24-.742a2.48 2.48 0 0 1-.119-.771z"/>
    </g>
</svg>
